<svg width="104" height="13" viewBox="0 0 104 13" fill="none" xmlns="http://www.w3.org/2000/svg">
<rect width="13" height="13" fill="#0B97C1"/>
<path fill-rule="evenodd" clip-rule="evenodd" d="M16.1199 0V13H20.6246C22.0043 13 23.0717 12.6667 23.827 12C24.5823 11.3333 24.9599 10.4167 24.9599 9.25C24.9599 8.48809 24.7562 7.83185 24.3488 7.28125C23.9415 6.73065 23.3869 6.35714 22.6852 6.16071C23.2799 5.90476 23.7497 5.54316 24.0946 5.07589C24.4395 4.60863 24.612 4.07143 24.612 3.46429C24.612 2.32142 24.2567 1.45834 23.546 0.875C22.8354 0.291664 21.7753 0 20.3659 0H16.1199ZM17.8105 11.4411V6.82595H20.6282C22.3071 6.82595 23.1466 7.59808 23.1466 9.14235C23.1466 9.8587 22.9191 10.4209 22.4641 10.829C22.0092 11.2371 21.3884 11.4411 20.6018 11.4411H17.8105ZM17.8105 5.46948H20.364C21.1037 5.46948 21.6951 5.28452 22.1383 4.9146C22.5815 4.54468 22.8032 4.04265 22.8032 3.4085C22.8032 2.70389 22.5977 2.19159 22.1868 1.87158C21.7758 1.55157 21.1507 1.39156 20.3112 1.39156H17.8105V5.46948ZM35.2302 11.5982H29.0335V0H27.3002V13H35.2302V11.5982ZM45.551 0V8.71951C45.5451 9.92909 45.1651 10.9185 44.4107 11.6877C43.6564 12.4569 42.6335 12.8884 41.342 12.9824L40.8929 13C39.4899 13 38.3717 12.6213 37.5381 11.8638C36.7045 11.1064 36.2818 10.0641 36.2701 8.73713V0H37.9431V8.68428C37.9431 9.61202 38.1985 10.3328 38.7092 10.8465C39.2199 11.3603 39.9478 11.6172 40.8929 11.6172C41.8498 11.6172 42.5821 11.3618 43.0899 10.8509C43.5977 10.3401 43.8516 9.62083 43.8516 8.69309V0H45.551ZM49.9654 6.89634H55.5216V5.51355H49.9654V1.3916H56.3317V0H48.2748V12.8238H56.4198V11.4411H49.9654V6.89634Z" fill="#1A1E21"/>
<path fill-rule="evenodd" clip-rule="evenodd" d="M59.5019 13V7.50893H63.1448C64.4662 7.49702 65.4855 7.16965 66.2028 6.52679C66.9201 5.88393 67.2787 4.97322 67.2787 3.79464C67.2787 2.60416 66.9111 1.67411 66.176 1.00446C65.4409 0.334818 64.4097 0 63.0823 0H59.0198V13H59.5019ZM63.0828 7.02675H59.5024V0.482105H63.0828C64.2554 0.482105 65.1676 0.775256 65.8194 1.36157C66.4712 1.94788 66.7971 2.76484 66.7971 3.81246C66.7971 4.82437 66.4712 5.61305 65.8194 6.17853C65.1676 6.74401 64.2554 7.02675 63.0828 7.02675ZM70.9717 13H70.4896V0H70.9717V13ZM83.026 0L78.8296 5.99107L74.6332 0H74.026L78.526 6.36607L73.8564 13H74.4367L78.8296 6.74107L83.2046 13H83.8028L79.1332 6.36607L83.6332 0H83.026ZM93.2095 6.55357H86.6917V12.5179H94.1203V13H86.2095V0H94.1203V0.482143H86.6917V6.07143H93.2095V6.55357ZM104 12.5179H97.2415V0H96.7505V13H104V12.5179Z" fill="#1A1E21"/>
</svg>
